<svg xmlns="http://www.w3.org/2000/svg" width="375" viewBox="0 0 375 375" height="375" version="1.0"><defs><clipPath id="a"><path d="M 16.128906 41 L 358.867188 41 L 358.867188 337 L 16.128906 337 Z M 16.128906 41"/></clipPath><clipPath id="b"><path d="M 115.613281 85.582031 L 265.613281 85.582031 L 265.613281 235.582031 L 115.613281 235.582031 Z M 115.613281 85.582031"/></clipPath></defs><g clip-path="url(#a)"><path fill="#C4D6BB" d="M 16.117188 164.992188 C 16.117188 96.585938 92.742188 41.367188 187.492188 41.367188 C 282.242188 41.367188 358.867188 96.585938 358.867188 164.992188 C 358.867188 233.398438 282.242188 288.207031 187.492188 288.207031 C 173.484375 288.207031 159.480469 286.972656 146.296875 284.5 C 142.175781 299.746094 129.40625 322.410156 87.386719 336.835938 C 87.386719 336.835938 109.632812 309.636719 112.515625 275.433594 C 55.664062 255.652344 16.117188 213.621094 16.117188 164.992188 Z M 16.117188 164.992188"/></g><g clip-path="url(#b)"><path fill="#2B4141" d="M 193.390625 85.699219 C 202.460938 86.039062 211.191406 88.078125 219.242188 91.359375 L 220.828125 95.433594 L 217.425781 102.792969 L 218.902344 106.980469 C 223.324219 109.359375 227.519531 112.1875 231.144531 115.585938 L 235.566406 115.585938 L 241.351562 109.8125 L 245.660156 109.8125 C 251.667969 116.265625 256.429688 123.847656 259.945312 132.113281 L 258.128906 136.074219 L 250.535156 138.902344 L 248.605469 142.867188 C 250.082031 147.507812 250.988281 152.488281 251.214844 157.582031 L 254.390625 160.640625 L 262.550781 160.640625 L 265.613281 163.695312 C 265.273438 172.75 263.230469 181.46875 259.945312 189.503906 L 255.863281 190.976562 L 248.492188 187.582031 L 244.296875 189.050781 C 241.917969 193.46875 239.082031 197.65625 235.679688 201.277344 L 235.792969 205.691406 L 241.578125 211.464844 L 241.578125 215.769531 C 235.113281 221.769531 227.519531 226.523438 219.242188 229.917969 L 215.273438 228.105469 L 212.4375 220.523438 L 208.46875 218.597656 C 203.707031 220.070312 198.832031 220.976562 193.730469 221.203125 L 190.667969 224.371094 L 190.667969 232.523438 L 187.609375 235.578125 C 178.539062 235.238281 169.808594 233.199219 161.757812 229.804688 L 160.285156 225.730469 L 163.6875 218.371094 L 162.210938 214.183594 C 157.789062 211.804688 153.59375 208.976562 149.96875 205.578125 L 145.546875 205.691406 L 139.761719 211.464844 L 135.453125 211.464844 C 129.445312 205.015625 124.683594 197.429688 121.28125 189.164062 L 123.097656 185.203125 L 130.691406 182.375 L 132.621094 178.410156 C 131.144531 173.769531 130.238281 168.789062 130.011719 163.695312 L 126.835938 160.640625 L 118.675781 160.640625 L 115.613281 157.582031 C 115.953125 148.527344 117.996094 139.808594 121.28125 131.773438 L 125.363281 130.300781 L 132.734375 133.695312 L 136.929688 132.226562 C 139.308594 127.808594 142.144531 123.621094 145.546875 120 L 145.546875 115.585938 L 139.761719 109.8125 L 139.761719 105.511719 C 146.226562 99.511719 153.820312 94.753906 162.097656 91.246094 L 166.066406 93.058594 L 168.902344 100.640625 L 172.871094 102.566406 C 177.632812 101.09375 182.507812 100.1875 187.609375 99.964844 L 190.667969 96.792969 L 190.667969 88.644531 L 193.730469 85.585938 Z M 190.328125 117.734375 C 214.027344 117.734375 233.300781 136.980469 233.300781 160.640625 C 233.300781 184.296875 214.027344 203.542969 190.328125 203.542969 C 166.632812 203.542969 147.359375 184.296875 147.359375 160.640625 C 147.359375 136.980469 166.632812 117.734375 190.328125 117.734375 Z M 190.328125 117.734375" fill-rule="evenodd"/></g></svg>